<mxfile host="Electron" modified="2023-06-05T13:50:01.578Z" agent="Mozilla/5.0 (X11; Linux x86_64) AppleWebKit/537.36 (KHTML, like Gecko) draw.io/21.2.8 Chrome/112.0.5615.165 Electron/24.2.0 Safari/537.36" etag="dYKYhft3G9KDSTY57fDM" version="21.2.8" type="device">
  <diagram id="C5RBs43oDa-KdzZeNtuy" name="Page-1">
    <mxGraphModel dx="462" dy="822" grid="1" gridSize="10" guides="1" tooltips="1" connect="1" arrows="1" fold="1" page="1" pageScale="1" pageWidth="827" pageHeight="1169" math="0" shadow="0">
      <root>
        <mxCell id="WIyWlLk6GJQsqaUBKTNV-0" />
        <mxCell id="WIyWlLk6GJQsqaUBKTNV-1" parent="WIyWlLk6GJQsqaUBKTNV-0" />
        <mxCell id="2RdkmfmVD3VsKdulzFRT-2" value="" style="edgeStyle=orthogonalEdgeStyle;rounded=0;orthogonalLoop=1;jettySize=auto;html=1;" edge="1" parent="WIyWlLk6GJQsqaUBKTNV-1" source="2RdkmfmVD3VsKdulzFRT-0" target="2RdkmfmVD3VsKdulzFRT-1">
          <mxGeometry relative="1" as="geometry" />
        </mxCell>
        <mxCell id="2RdkmfmVD3VsKdulzFRT-0" value="existeElemento ( s: [int] , e:int ) -&amp;gt; Bool:&lt;br&gt;" style="rounded=0;whiteSpace=wrap;html=1;fillColor=#fff2cc;strokeColor=#d6b656;" vertex="1" parent="WIyWlLk6GJQsqaUBKTNV-1">
          <mxGeometry x="90" y="80" width="230" height="100" as="geometry" />
        </mxCell>
        <mxCell id="2RdkmfmVD3VsKdulzFRT-4" value="" style="edgeStyle=orthogonalEdgeStyle;rounded=0;orthogonalLoop=1;jettySize=auto;html=1;" edge="1" parent="WIyWlLk6GJQsqaUBKTNV-1" source="2RdkmfmVD3VsKdulzFRT-1" target="2RdkmfmVD3VsKdulzFRT-3">
          <mxGeometry relative="1" as="geometry" />
        </mxCell>
        <mxCell id="2RdkmfmVD3VsKdulzFRT-1" value="result : bool = False" style="rounded=0;whiteSpace=wrap;html=1;fillColor=#d5e8d4;strokeColor=#82b366;" vertex="1" parent="WIyWlLk6GJQsqaUBKTNV-1">
          <mxGeometry x="115" y="260" width="180" height="70" as="geometry" />
        </mxCell>
        <mxCell id="2RdkmfmVD3VsKdulzFRT-6" value="" style="edgeStyle=orthogonalEdgeStyle;rounded=0;orthogonalLoop=1;jettySize=auto;html=1;" edge="1" parent="WIyWlLk6GJQsqaUBKTNV-1" source="2RdkmfmVD3VsKdulzFRT-3" target="2RdkmfmVD3VsKdulzFRT-5">
          <mxGeometry relative="1" as="geometry" />
        </mxCell>
        <mxCell id="2RdkmfmVD3VsKdulzFRT-3" value="INIT : i = 0" style="rounded=0;whiteSpace=wrap;html=1;fillColor=#d5e8d4;strokeColor=#82b366;" vertex="1" parent="WIyWlLk6GJQsqaUBKTNV-1">
          <mxGeometry x="115" y="410" width="180" height="70" as="geometry" />
        </mxCell>
        <mxCell id="2RdkmfmVD3VsKdulzFRT-8" value="TRUE" style="edgeStyle=orthogonalEdgeStyle;rounded=0;orthogonalLoop=1;jettySize=auto;html=1;" edge="1" parent="WIyWlLk6GJQsqaUBKTNV-1" source="2RdkmfmVD3VsKdulzFRT-5" target="2RdkmfmVD3VsKdulzFRT-7">
          <mxGeometry relative="1" as="geometry" />
        </mxCell>
        <mxCell id="2RdkmfmVD3VsKdulzFRT-19" style="edgeStyle=orthogonalEdgeStyle;rounded=0;orthogonalLoop=1;jettySize=auto;html=1;exitX=0;exitY=0.5;exitDx=0;exitDy=0;entryX=0;entryY=0.5;entryDx=0;entryDy=0;" edge="1" parent="WIyWlLk6GJQsqaUBKTNV-1" source="2RdkmfmVD3VsKdulzFRT-5" target="2RdkmfmVD3VsKdulzFRT-11">
          <mxGeometry relative="1" as="geometry">
            <Array as="points">
              <mxPoint x="40" y="595" />
              <mxPoint x="40" y="1045" />
            </Array>
          </mxGeometry>
        </mxCell>
        <mxCell id="2RdkmfmVD3VsKdulzFRT-5" value="COND [ i &amp;lt; len(s) ]" style="rounded=0;whiteSpace=wrap;html=1;fillColor=#d5e8d4;strokeColor=#82b366;" vertex="1" parent="WIyWlLk6GJQsqaUBKTNV-1">
          <mxGeometry x="115" y="560" width="180" height="70" as="geometry" />
        </mxCell>
        <mxCell id="2RdkmfmVD3VsKdulzFRT-10" value="TRUE" style="edgeStyle=orthogonalEdgeStyle;rounded=0;orthogonalLoop=1;jettySize=auto;html=1;" edge="1" parent="WIyWlLk6GJQsqaUBKTNV-1" source="2RdkmfmVD3VsKdulzFRT-7" target="2RdkmfmVD3VsKdulzFRT-9">
          <mxGeometry relative="1" as="geometry" />
        </mxCell>
        <mxCell id="2RdkmfmVD3VsKdulzFRT-17" value="FALSE" style="edgeStyle=orthogonalEdgeStyle;rounded=0;orthogonalLoop=1;jettySize=auto;html=1;" edge="1" parent="WIyWlLk6GJQsqaUBKTNV-1" source="2RdkmfmVD3VsKdulzFRT-7" target="2RdkmfmVD3VsKdulzFRT-16">
          <mxGeometry relative="1" as="geometry" />
        </mxCell>
        <mxCell id="2RdkmfmVD3VsKdulzFRT-7" value="if s [i] == e" style="rounded=0;whiteSpace=wrap;html=1;fillColor=#d5e8d4;strokeColor=#82b366;" vertex="1" parent="WIyWlLk6GJQsqaUBKTNV-1">
          <mxGeometry x="115" y="710" width="180" height="70" as="geometry" />
        </mxCell>
        <mxCell id="2RdkmfmVD3VsKdulzFRT-12" value="" style="edgeStyle=orthogonalEdgeStyle;rounded=0;orthogonalLoop=1;jettySize=auto;html=1;" edge="1" parent="WIyWlLk6GJQsqaUBKTNV-1" source="2RdkmfmVD3VsKdulzFRT-9" target="2RdkmfmVD3VsKdulzFRT-11">
          <mxGeometry relative="1" as="geometry" />
        </mxCell>
        <mxCell id="2RdkmfmVD3VsKdulzFRT-9" value="result = True" style="rounded=0;whiteSpace=wrap;html=1;fillColor=#d5e8d4;strokeColor=#82b366;" vertex="1" parent="WIyWlLk6GJQsqaUBKTNV-1">
          <mxGeometry x="115" y="860" width="180" height="70" as="geometry" />
        </mxCell>
        <mxCell id="2RdkmfmVD3VsKdulzFRT-11" value="return result" style="rounded=0;whiteSpace=wrap;html=1;fillColor=#d5e8d4;strokeColor=#82b366;" vertex="1" parent="WIyWlLk6GJQsqaUBKTNV-1">
          <mxGeometry x="115" y="1010" width="180" height="70" as="geometry" />
        </mxCell>
        <mxCell id="2RdkmfmVD3VsKdulzFRT-18" style="edgeStyle=orthogonalEdgeStyle;rounded=0;orthogonalLoop=1;jettySize=auto;html=1;exitX=0.5;exitY=0;exitDx=0;exitDy=0;entryX=1;entryY=0.5;entryDx=0;entryDy=0;" edge="1" parent="WIyWlLk6GJQsqaUBKTNV-1" source="2RdkmfmVD3VsKdulzFRT-16" target="2RdkmfmVD3VsKdulzFRT-5">
          <mxGeometry relative="1" as="geometry" />
        </mxCell>
        <mxCell id="2RdkmfmVD3VsKdulzFRT-16" value="INCR : [ i = i + 1]" style="rounded=0;whiteSpace=wrap;html=1;fillColor=#d5e8d4;strokeColor=#82b366;" vertex="1" parent="WIyWlLk6GJQsqaUBKTNV-1">
          <mxGeometry x="350" y="630" width="180" height="70" as="geometry" />
        </mxCell>
        <mxCell id="2RdkmfmVD3VsKdulzFRT-20" value="" style="shape=table;startSize=0;container=1;collapsible=0;childLayout=tableLayout;" vertex="1" parent="WIyWlLk6GJQsqaUBKTNV-1">
          <mxGeometry x="414" y="189" width="240" height="120" as="geometry" />
        </mxCell>
        <mxCell id="2RdkmfmVD3VsKdulzFRT-21" value="" style="shape=tableRow;horizontal=0;startSize=0;swimlaneHead=0;swimlaneBody=0;strokeColor=inherit;top=0;left=0;bottom=0;right=0;collapsible=0;dropTarget=0;fillColor=none;points=[[0,0.5],[1,0.5]];portConstraint=eastwest;" vertex="1" parent="2RdkmfmVD3VsKdulzFRT-20">
          <mxGeometry width="240" height="40" as="geometry" />
        </mxCell>
        <mxCell id="2RdkmfmVD3VsKdulzFRT-22" value="" style="shape=partialRectangle;html=1;whiteSpace=wrap;connectable=0;strokeColor=#666666;overflow=hidden;fillColor=#f5f5f5;top=0;left=0;bottom=0;right=0;pointerEvents=1;fontColor=#333333;" vertex="1" parent="2RdkmfmVD3VsKdulzFRT-21">
          <mxGeometry width="60" height="40" as="geometry">
            <mxRectangle width="60" height="40" as="alternateBounds" />
          </mxGeometry>
        </mxCell>
        <mxCell id="2RdkmfmVD3VsKdulzFRT-23" value="s" style="shape=partialRectangle;html=1;whiteSpace=wrap;connectable=0;strokeColor=#82b366;overflow=hidden;fillColor=#d5e8d4;top=0;left=0;bottom=0;right=0;pointerEvents=1;" vertex="1" parent="2RdkmfmVD3VsKdulzFRT-21">
          <mxGeometry x="60" width="60" height="40" as="geometry">
            <mxRectangle width="60" height="40" as="alternateBounds" />
          </mxGeometry>
        </mxCell>
        <mxCell id="2RdkmfmVD3VsKdulzFRT-24" value="e" style="shape=partialRectangle;html=1;whiteSpace=wrap;connectable=0;strokeColor=#82b366;overflow=hidden;fillColor=#d5e8d4;top=0;left=0;bottom=0;right=0;pointerEvents=1;" vertex="1" parent="2RdkmfmVD3VsKdulzFRT-21">
          <mxGeometry x="120" width="60" height="40" as="geometry">
            <mxRectangle width="60" height="40" as="alternateBounds" />
          </mxGeometry>
        </mxCell>
        <mxCell id="2RdkmfmVD3VsKdulzFRT-25" value="return" style="shape=partialRectangle;html=1;whiteSpace=wrap;connectable=0;strokeColor=#82b366;overflow=hidden;fillColor=#d5e8d4;top=0;left=0;bottom=0;right=0;pointerEvents=1;" vertex="1" parent="2RdkmfmVD3VsKdulzFRT-21">
          <mxGeometry x="180" width="60" height="40" as="geometry">
            <mxRectangle width="60" height="40" as="alternateBounds" />
          </mxGeometry>
        </mxCell>
        <mxCell id="2RdkmfmVD3VsKdulzFRT-26" value="" style="shape=tableRow;horizontal=0;startSize=0;swimlaneHead=0;swimlaneBody=0;strokeColor=inherit;top=0;left=0;bottom=0;right=0;collapsible=0;dropTarget=0;fillColor=none;points=[[0,0.5],[1,0.5]];portConstraint=eastwest;" vertex="1" parent="2RdkmfmVD3VsKdulzFRT-20">
          <mxGeometry y="40" width="240" height="40" as="geometry" />
        </mxCell>
        <mxCell id="2RdkmfmVD3VsKdulzFRT-27" value="EnterCond" style="shape=partialRectangle;html=1;whiteSpace=wrap;connectable=0;strokeColor=#82b366;overflow=hidden;fillColor=#d5e8d4;top=0;left=0;bottom=0;right=0;pointerEvents=1;" vertex="1" parent="2RdkmfmVD3VsKdulzFRT-26">
          <mxGeometry width="60" height="40" as="geometry">
            <mxRectangle width="60" height="40" as="alternateBounds" />
          </mxGeometry>
        </mxCell>
        <mxCell id="2RdkmfmVD3VsKdulzFRT-28" value="[1,2,3]" style="shape=partialRectangle;html=1;whiteSpace=wrap;connectable=0;strokeColor=#d6b656;overflow=hidden;fillColor=#fff2cc;top=0;left=0;bottom=0;right=0;pointerEvents=1;" vertex="1" parent="2RdkmfmVD3VsKdulzFRT-26">
          <mxGeometry x="60" width="60" height="40" as="geometry">
            <mxRectangle width="60" height="40" as="alternateBounds" />
          </mxGeometry>
        </mxCell>
        <mxCell id="2RdkmfmVD3VsKdulzFRT-29" value="2" style="shape=partialRectangle;html=1;whiteSpace=wrap;connectable=0;strokeColor=#d6b656;overflow=hidden;fillColor=#fff2cc;top=0;left=0;bottom=0;right=0;pointerEvents=1;" vertex="1" parent="2RdkmfmVD3VsKdulzFRT-26">
          <mxGeometry x="120" width="60" height="40" as="geometry">
            <mxRectangle width="60" height="40" as="alternateBounds" />
          </mxGeometry>
        </mxCell>
        <mxCell id="2RdkmfmVD3VsKdulzFRT-30" value="True" style="shape=partialRectangle;html=1;whiteSpace=wrap;connectable=0;strokeColor=#d6b656;overflow=hidden;fillColor=#fff2cc;top=0;left=0;bottom=0;right=0;pointerEvents=1;" vertex="1" parent="2RdkmfmVD3VsKdulzFRT-26">
          <mxGeometry x="180" width="60" height="40" as="geometry">
            <mxRectangle width="60" height="40" as="alternateBounds" />
          </mxGeometry>
        </mxCell>
        <mxCell id="2RdkmfmVD3VsKdulzFRT-31" value="" style="shape=tableRow;horizontal=0;startSize=0;swimlaneHead=0;swimlaneBody=0;strokeColor=inherit;top=0;left=0;bottom=0;right=0;collapsible=0;dropTarget=0;fillColor=none;points=[[0,0.5],[1,0.5]];portConstraint=eastwest;" vertex="1" parent="2RdkmfmVD3VsKdulzFRT-20">
          <mxGeometry y="80" width="240" height="40" as="geometry" />
        </mxCell>
        <mxCell id="2RdkmfmVD3VsKdulzFRT-32" value="passCond" style="shape=partialRectangle;html=1;whiteSpace=wrap;connectable=0;strokeColor=#82b366;overflow=hidden;fillColor=#d5e8d4;top=0;left=0;bottom=0;right=0;pointerEvents=1;" vertex="1" parent="2RdkmfmVD3VsKdulzFRT-31">
          <mxGeometry width="60" height="40" as="geometry">
            <mxRectangle width="60" height="40" as="alternateBounds" />
          </mxGeometry>
        </mxCell>
        <mxCell id="2RdkmfmVD3VsKdulzFRT-33" value="[]" style="shape=partialRectangle;html=1;whiteSpace=wrap;connectable=0;strokeColor=#d6b656;overflow=hidden;fillColor=#fff2cc;top=0;left=0;bottom=0;right=0;pointerEvents=1;" vertex="1" parent="2RdkmfmVD3VsKdulzFRT-31">
          <mxGeometry x="60" width="60" height="40" as="geometry">
            <mxRectangle width="60" height="40" as="alternateBounds" />
          </mxGeometry>
        </mxCell>
        <mxCell id="2RdkmfmVD3VsKdulzFRT-34" value="1" style="shape=partialRectangle;html=1;whiteSpace=wrap;connectable=0;strokeColor=#d6b656;overflow=hidden;fillColor=#fff2cc;top=0;left=0;bottom=0;right=0;pointerEvents=1;" vertex="1" parent="2RdkmfmVD3VsKdulzFRT-31">
          <mxGeometry x="120" width="60" height="40" as="geometry">
            <mxRectangle width="60" height="40" as="alternateBounds" />
          </mxGeometry>
        </mxCell>
        <mxCell id="2RdkmfmVD3VsKdulzFRT-35" value="False" style="shape=partialRectangle;html=1;whiteSpace=wrap;connectable=0;strokeColor=#d6b656;overflow=hidden;fillColor=#fff2cc;top=0;left=0;bottom=0;right=0;pointerEvents=1;" vertex="1" parent="2RdkmfmVD3VsKdulzFRT-31">
          <mxGeometry x="180" width="60" height="40" as="geometry">
            <mxRectangle width="60" height="40" as="alternateBounds" />
          </mxGeometry>
        </mxCell>
        <mxCell id="2RdkmfmVD3VsKdulzFRT-36" value="&lt;h1&gt;Ejercicio 2&lt;/h1&gt;&lt;div&gt;Este test suite cubriria todas las lineas&lt;/div&gt;" style="text;html=1;strokeColor=none;fillColor=none;spacing=5;spacingTop=-20;whiteSpace=wrap;overflow=hidden;rounded=0;" vertex="1" parent="WIyWlLk6GJQsqaUBKTNV-1">
          <mxGeometry x="410" y="100" width="190" height="120" as="geometry" />
        </mxCell>
        <mxCell id="2RdkmfmVD3VsKdulzFRT-38" value="&lt;h1&gt;Ejercicio 3&lt;/h1&gt;&lt;div&gt;Este test suite, todas las branches y todas las lineas. Al anterior test suite le agrego&lt;/div&gt;" style="text;html=1;strokeColor=none;fillColor=none;spacing=5;spacingTop=-20;whiteSpace=wrap;overflow=hidden;rounded=0;" vertex="1" parent="WIyWlLk6GJQsqaUBKTNV-1">
          <mxGeometry x="414" y="330" width="190" height="90" as="geometry" />
        </mxCell>
      </root>
    </mxGraphModel>
  </diagram>
</mxfile>
